<svg width="48" height="42" viewBox="0 0 48 42" fill="none" xmlns="http://www.w3.org/2000/svg">
<path d="M28.6447 23.7094C32.0654 23.7094 34.8383 20.9364 34.8383 17.5158C34.8383 14.0952 32.0654 11.3223 28.6447 11.3223C25.2241 11.3223 22.4512 14.0952 22.4512 17.5158C22.4512 20.9364 25.2241 23.7094 28.6447 23.7094Z" fill="#FFDA00"/>
<path d="M24.0001 31.4517C22.2922 31.4517 20.9033 32.8405 20.9033 34.5484C20.9033 36.2564 22.2922 37.6452 24.0001 37.6452C25.708 37.6452 27.0969 36.2564 27.0969 34.5484C27.0969 32.8405 25.708 31.4517 24.0001 31.4517ZM24.0001 36.0968C23.1462 36.0968 22.4517 35.4023 22.4517 34.5484C22.4517 33.6946 23.1462 33.0001 24.0001 33.0001C24.854 33.0001 25.5485 33.6946 25.5485 34.5484C25.5485 35.4023 24.8542 36.0968 24.0001 36.0968Z" fill="#414140"/>
<path d="M46.89 24.1952C46.1954 23.7136 45.3067 23.6044 44.5139 23.8994L44.4249 23.9327L36.0504 3.3762L14.9288 10.92L10.5809 0.483887H2.32251C1.04201 0.483887 0 1.52589 0 2.80639C0 4.08689 1.04201 5.12906 2.32251 5.12906H7.23095L18.178 30.7301C17.4558 31.828 17.0323 33.1387 17.0323 34.5485C17.0323 38.3908 20.1585 41.5164 24 41.5164C27.8415 41.5164 30.9677 38.391 30.9677 34.5485C30.9677 34.4719 30.9584 34.3967 30.9561 34.3209L46.3015 28.7413C47.3172 28.3711 48 27.3972 48 26.3157C48.0002 25.4694 47.5851 24.6775 46.89 24.1952ZM25.992 8.61282L28.3859 13.9989L25.9534 14.972L23.5194 9.49611L25.992 8.61282ZM22.0569 10.018L25.1436 16.9634L30.453 14.8398L27.4539 8.09108L35.1757 5.33337L42.975 24.4769L29.0077 29.7152C27.7396 28.4014 25.9651 27.5808 24.0002 27.5808C23.3027 27.5808 22.6306 27.6869 21.9949 27.8781L15.5249 12.3506L22.0569 10.018ZM2.32251 3.58067C1.89589 3.58067 1.54839 3.23383 1.54839 2.80639C1.54839 2.37895 1.89606 2.03211 2.32251 2.03211H9.54801L20.5717 28.4896C20.1119 28.7505 19.6876 29.064 19.3005 29.4186L8.25297 3.58067H2.32251ZM24 39.9678C21.0116 39.9678 18.5807 37.5361 18.5807 34.5484C18.5807 31.5606 21.0117 29.1289 24 29.1289C26.9883 29.1289 29.4193 31.5606 29.4193 34.5484C29.4193 37.5361 26.9884 39.9678 24 39.9678ZM45.7728 27.2857L30.7264 32.757C30.5599 32.133 30.3098 31.5439 29.987 31.0012L45.0575 25.3495C45.3795 25.2279 45.7249 25.2714 46.0081 25.4673C46.2899 25.6631 46.4518 25.9728 46.4518 26.3157C46.4518 26.7484 46.1784 27.1379 45.7728 27.2857Z" fill="#414140"/>
</svg>
